<svg width="597" height="169" viewBox="0 0 597 169" fill="none" xmlns="http://www.w3.org/2000/svg">
<g clip-path="url(#clip0)">
<path d="M92.9617 73.8846C104.22 73.8846 113.346 64.7581 113.346 53.5C113.346 42.2419 104.22 33.1154 92.9617 33.1154C81.7036 33.1154 72.5771 42.2419 72.5771 53.5C72.5771 64.7581 81.7036 73.8846 92.9617 73.8846Z" stroke="white" stroke-width="2.03846" stroke-linecap="round" stroke-linejoin="round"/>
<path d="M92.6472 62.0966H95.4347V41.5389H92.9666L87.2465 46.2718L88.8725 48.2172L92.6472 44.7329V62.0966Z" fill="white"/>
<path d="M34.528 111.195C35.68 112.803 37.768 113.547 39.952 113.547C43.216 113.547 45.856 111.579 45.856 108.291C45.856 102.171 37.48 104.739 37.48 100.443C37.48 99.3874 38.248 97.8514 40.792 97.8514C42.112 97.8514 43.24 98.4514 43.816 99.3394L45.688 97.6354C44.416 96.0754 42.64 95.6914 40.792 95.6914C36.712 95.6914 35.032 98.4514 35.032 100.443C35.032 107.067 43.408 104.643 43.408 108.555C43.408 110.427 41.536 111.387 40.024 111.387C38.656 111.387 37.24 110.811 36.424 109.563L34.528 111.195ZM58.7119 103.275C57.5839 102.051 55.9999 101.475 54.3439 101.475C50.7919 101.475 48.3919 103.971 48.3919 107.475C48.3919 110.979 50.8399 113.403 54.3439 113.403C55.9999 113.403 57.5359 112.899 58.6639 111.651L57.1279 110.115C56.4079 110.955 55.5679 111.387 54.3679 111.387C52.1359 111.387 50.6959 109.659 50.6959 107.523C50.6959 105.387 51.8959 103.491 54.2479 103.491C55.4479 103.491 56.2879 103.923 57.0799 104.763L58.7119 103.275ZM62.106 104.475C62.898 103.875 63.69 103.179 65.346 103.179C67.194 103.179 68.058 104.403 68.058 105.579V106.059H66.474C63.018 106.059 60.21 107.067 60.21 109.995C60.21 112.203 62.034 113.403 64.146 113.403C65.874 113.403 67.17 112.851 68.13 111.387H68.178C68.178 111.963 68.202 112.539 68.25 113.115H70.17C70.098 112.515 70.074 111.843 70.074 111.051V105.243C70.074 103.275 68.682 101.451 65.322 101.451C63.738 101.451 62.01 102.003 60.81 103.131L62.106 104.475ZM68.058 107.643V108.363C68.058 109.899 67.218 111.675 64.818 111.675C63.33 111.675 62.37 111.123 62.37 109.827C62.37 108.003 64.866 107.643 66.906 107.643H68.058ZM73.4474 113.115H75.6074V107.259C75.6074 104.619 76.9754 103.467 78.7754 103.467C80.1434 103.467 81.3674 104.259 81.3674 106.395V113.115H83.5274V105.795C83.5274 102.771 81.6074 101.451 79.3994 101.451C77.6474 101.451 76.2074 102.291 75.6554 103.491H75.6074V101.739H73.4474V113.115ZM108.247 98.3314C106.879 96.5314 104.527 95.6914 102.295 95.6914C97.063 95.6914 93.439 99.4834 93.439 104.763C93.439 109.035 96.775 113.547 102.175 113.547C106.063 113.547 108.103 111.267 108.607 110.571L106.663 109.107C105.655 110.523 104.167 111.387 102.223 111.387C98.263 111.387 95.887 108.339 95.887 104.763C95.887 100.899 98.407 97.8514 102.223 97.8514C103.783 97.8514 105.367 98.5474 106.327 99.7954L108.247 98.3314ZM112.833 107.427C112.833 105.123 114.273 103.467 116.577 103.467C118.881 103.467 120.321 105.123 120.321 107.427C120.321 109.731 118.881 111.387 116.577 111.387C114.273 111.387 112.833 109.731 112.833 107.427ZM110.529 107.427C110.529 110.739 113.193 113.403 116.577 113.403C119.961 113.403 122.625 110.739 122.625 107.427C122.625 104.115 119.961 101.451 116.577 101.451C113.193 101.451 110.529 104.115 110.529 107.427ZM136.971 94.9714H134.811V103.371H134.763C133.995 102.195 132.435 101.451 130.803 101.451C127.299 101.451 125.019 104.019 125.019 107.427C125.019 110.787 127.275 113.403 130.803 113.403C132.339 113.403 133.923 112.707 134.763 111.483H134.811V113.115H136.971V94.9714ZM131.067 111.387C128.763 111.387 127.323 109.731 127.323 107.427C127.323 105.123 128.763 103.467 131.067 103.467C133.371 103.467 134.811 105.123 134.811 107.427C134.811 109.731 133.371 111.387 131.067 111.387ZM151.235 108.219V107.451C151.235 104.523 149.699 101.451 145.691 101.451C142.283 101.451 139.811 104.019 139.811 107.427C139.811 110.811 142.067 113.403 145.667 113.403C147.851 113.403 149.507 112.635 150.707 111.075L149.075 109.827C148.235 110.859 147.275 111.531 145.955 111.531C143.963 111.531 142.115 110.211 142.115 108.219H151.235ZM142.115 106.491C142.115 104.979 143.507 103.179 145.643 103.179C147.827 103.179 148.883 104.595 148.931 106.491H142.115ZM31.5292 141.115H32.6812V134.131H32.7052L37.4332 141.115H38.8972V132.619H37.7452V139.603H37.7212L33.0412 132.619H31.5292V141.115ZM45.0999 141.331C47.6919 141.331 49.5279 139.387 49.5279 136.867C49.5279 134.347 47.6919 132.403 45.0999 132.403C42.5079 132.403 40.6719 134.347 40.6719 136.867C40.6719 139.387 42.5079 141.331 45.0999 141.331ZM45.0999 140.251C43.1559 140.251 41.8959 138.727 41.8959 136.867C41.8959 135.007 43.1559 133.483 45.0999 133.483C47.0439 133.483 48.3039 135.007 48.3039 136.867C48.3039 138.727 47.0439 140.251 45.0999 140.251ZM53.0803 141.115H54.2323V133.699H56.9683V132.619H50.3443V133.699H53.0803V141.115ZM63.1788 141.115H64.3908L66.4428 134.179H66.4668L68.5308 141.115H69.7428L72.2148 132.619H71.0148L69.1428 139.411H69.1188L67.1148 132.619H65.7948L63.7908 139.411H63.7668L61.8948 132.619H60.6948L63.1788 141.115ZM73.4377 141.115H74.5897V132.619H73.4377V141.115ZM78.6736 141.115H79.8256V133.699H82.5616V132.619H75.9376V133.699H78.6736V141.115ZM83.9082 141.115H85.0602V137.227H89.4642V141.115H90.6162V132.619H89.4642V136.147H85.0602V132.619H83.9082V141.115ZM96.3826 141.115H99.2986C100.955 141.115 102.287 140.275 102.287 138.751C102.287 137.611 101.471 136.711 100.451 136.639V136.615C101.315 136.327 101.915 135.715 101.915 134.743C101.915 133.303 100.811 132.619 99.3346 132.619H96.3826V141.115ZM97.5346 133.627H99.3466C100.271 133.627 100.691 134.203 100.691 134.875C100.691 135.799 99.9826 136.147 99.1066 136.147H97.5346V133.627ZM97.5346 137.155H99.2386C100.355 137.155 101.063 137.659 101.063 138.667C101.063 139.867 99.9226 140.107 99.2266 140.107H97.5346V137.155ZM102.981 141.115H104.325L105.165 139.015H109.209L110.061 141.115H111.405L107.769 132.619H106.725L102.981 141.115ZM105.573 138.007L107.181 134.107H107.205L108.789 138.007H105.573ZM112.63 141.115H113.782V134.131H113.806L118.534 141.115H119.998V132.619H118.846V139.603H118.822L114.142 132.619H112.63V141.115ZM122.301 141.115H123.453V136.867H123.549L127.509 141.115H129.189L124.809 136.543L128.913 132.619H127.305L123.549 136.291H123.453V132.619H122.301V141.115ZM132.582 141.115H133.926L134.766 139.015H138.81L139.662 141.115H141.006L137.37 132.619H136.326L132.582 141.115ZM135.174 138.007L136.782 134.107H136.806L138.39 138.007H135.174ZM142.232 141.115H143.384V137.371H145.22C147.392 137.371 147.944 136.063 147.944 134.995C147.944 133.927 147.392 132.619 145.22 132.619H142.232V141.115ZM143.384 133.627H144.896C145.808 133.627 146.72 133.843 146.72 134.995C146.72 136.147 145.808 136.363 144.896 136.363H143.384V133.627ZM149.465 141.115H150.617V137.371H152.453C154.625 137.371 155.177 136.063 155.177 134.995C155.177 133.927 154.625 132.619 152.453 132.619H149.465V141.115ZM150.617 133.627H152.129C153.041 133.627 153.953 133.843 153.953 134.995C153.953 136.147 153.041 136.363 152.129 136.363H150.617V133.627Z" fill="white"/>
</g>
<line x1="176.462" y1="83.5" x2="215.231" y2="83.5" stroke="white" stroke-width="2" stroke-linecap="round"/>
<g clip-path="url(#clip1)">
<path d="M298.731 73.8846C309.989 73.8846 319.115 64.7581 319.115 53.5C319.115 42.2419 309.989 33.1154 298.731 33.1154C287.473 33.1154 278.346 42.2419 278.346 53.5C278.346 64.7581 287.473 73.8846 298.731 73.8846Z" stroke="white" stroke-width="2.03846" stroke-linecap="round" stroke-linejoin="round"/>
<path d="M291.912 62.0966H305.385V59.6575H295.048L301.814 53.1244C303.643 51.3532 305.385 49.4077 305.385 46.7074C305.385 42.9327 302.452 41.0163 298.91 41.0163C295.368 41.0163 292.667 42.7294 292.116 46.3589L295.135 46.6203C295.484 44.6748 296.877 43.4553 298.881 43.4553C300.826 43.4553 302.423 44.7039 302.423 46.7364C302.423 48.4205 301.291 49.8433 300.159 50.9467L291.912 59.1349V62.0966Z" fill="white"/>
<path d="M265.686 112.195C266.838 113.803 268.926 114.547 271.11 114.547C274.374 114.547 277.014 112.579 277.014 109.291C277.014 103.171 268.638 105.739 268.638 101.443C268.638 100.387 269.406 98.8514 271.95 98.8514C273.27 98.8514 274.398 99.4514 274.974 100.339L276.846 98.6354C275.574 97.0754 273.798 96.6914 271.95 96.6914C267.87 96.6914 266.19 99.4514 266.19 101.443C266.19 108.067 274.566 105.643 274.566 109.555C274.566 111.427 272.694 112.387 271.182 112.387C269.814 112.387 268.398 111.811 267.582 110.563L265.686 112.195ZM290.854 109.219V108.451C290.854 105.523 289.318 102.451 285.31 102.451C281.902 102.451 279.43 105.019 279.43 108.427C279.43 111.811 281.686 114.403 285.286 114.403C287.47 114.403 289.126 113.635 290.326 112.075L288.694 110.827C287.854 111.859 286.894 112.531 285.574 112.531C283.582 112.531 281.734 111.211 281.734 109.219H290.854ZM281.734 107.491C281.734 105.979 283.126 104.179 285.262 104.179C287.446 104.179 288.502 105.595 288.55 107.491H281.734ZM293.846 114.115H296.006V95.9714H293.846V114.115ZM310.435 109.219V108.451C310.435 105.523 308.899 102.451 304.891 102.451C301.483 102.451 299.011 105.019 299.011 108.427C299.011 111.811 301.267 114.403 304.867 114.403C307.051 114.403 308.707 113.635 309.907 112.075L308.275 110.827C307.435 111.859 306.475 112.531 305.155 112.531C303.163 112.531 301.315 111.211 301.315 109.219H310.435ZM301.315 107.491C301.315 105.979 302.707 104.179 304.843 104.179C307.027 104.179 308.083 105.595 308.131 107.491H301.315ZM323.027 104.275C321.899 103.051 320.315 102.475 318.659 102.475C315.107 102.475 312.707 104.971 312.707 108.475C312.707 111.979 315.155 114.403 318.659 114.403C320.315 114.403 321.851 113.899 322.979 112.651L321.443 111.115C320.723 111.955 319.883 112.387 318.683 112.387C316.451 112.387 315.011 110.659 315.011 108.523C315.011 106.387 316.211 104.491 318.563 104.491C319.763 104.491 320.603 104.923 321.395 105.763L323.027 104.275ZM331.173 102.739H328.077V99.5474H325.917V102.739H323.421V104.611H325.917V110.539C325.917 112.363 325.965 114.403 329.301 114.403C329.733 114.403 330.741 114.307 331.245 114.019V112.051C330.813 112.315 330.213 112.387 329.709 112.387C328.077 112.387 328.077 111.043 328.077 109.771V104.611H331.173V102.739ZM254.585 142.115H257.273L258.953 137.915H267.041L268.745 142.115H271.433L264.161 125.123H262.073L254.585 142.115ZM259.769 135.899L262.985 128.099H263.033L266.201 135.899H259.769ZM273.331 142.115H275.491V136.211C275.491 133.643 276.883 132.467 278.443 132.467C280.531 132.467 280.843 134.003 280.843 136.163V142.115H283.003V135.899C283.003 133.883 283.819 132.467 285.907 132.467C287.995 132.467 288.355 134.051 288.355 135.779V142.115H290.515V135.491C290.515 132.947 289.699 130.451 286.195 130.451C284.827 130.451 283.339 131.171 282.595 132.563C281.875 131.171 280.723 130.451 279.043 130.451C277.003 130.451 275.611 131.843 275.395 132.515H275.347V130.739H273.331V142.115ZM295.76 136.427C295.76 134.123 297.2 132.467 299.504 132.467C301.808 132.467 303.248 134.123 303.248 136.427C303.248 138.731 301.808 140.387 299.504 140.387C297.2 140.387 295.76 138.731 295.76 136.427ZM293.456 136.427C293.456 139.739 296.12 142.403 299.504 142.403C302.888 142.403 305.552 139.739 305.552 136.427C305.552 133.115 302.888 130.451 299.504 130.451C296.12 130.451 293.456 133.115 293.456 136.427ZM318.578 130.739H316.418V136.595C316.418 139.235 315.05 140.387 313.25 140.387C311.882 140.387 310.658 139.595 310.658 137.459V130.739H308.498V138.059C308.498 141.083 310.418 142.403 312.626 142.403C314.378 142.403 315.818 141.563 316.37 140.363H316.418V142.115H318.578V130.739ZM322.074 142.115H324.234V136.259C324.234 133.619 325.602 132.467 327.402 132.467C328.77 132.467 329.994 133.259 329.994 135.395V142.115H332.154V134.795C332.154 131.771 330.234 130.451 328.026 130.451C326.274 130.451 324.834 131.291 324.282 132.491H324.234V130.739H322.074V142.115ZM341.746 130.739H338.65V127.547H336.49V130.739H333.994V132.611H336.49V138.539C336.49 140.363 336.538 142.403 339.874 142.403C340.306 142.403 341.314 142.307 341.818 142.019V140.051C341.386 140.315 340.786 140.387 340.282 140.387C338.65 140.387 338.65 139.043 338.65 137.771V132.611H341.746V130.739Z" fill="white"/>
</g>
<line x1="382.231" y1="83.5" x2="421" y2="83.5" stroke="white" stroke-width="2" stroke-linecap="round"/>
<g clip-path="url(#clip2)">
<path d="M504.5 73.8846C515.758 73.8846 524.885 64.7581 524.885 53.5C524.885 42.2419 515.758 33.1154 504.5 33.1154C493.242 33.1154 484.116 42.2419 484.116 53.5C484.116 64.7581 493.242 73.8846 504.5 73.8846Z" stroke="white" stroke-width="2.03846" stroke-linecap="round" stroke-linejoin="round"/>
<path d="M497.681 57.9734C498.611 61.0803 501.166 62.445 504.302 62.445C507.931 62.445 511.154 60.4415 511.154 56.4926C511.154 53.9664 509.702 51.7597 507.118 51.3241V51.2661C509.209 50.6563 510.632 48.7689 510.632 46.6203C510.632 42.8165 507.699 41.0163 504.331 41.0163C501.601 41.0163 499.191 42.2648 498.117 44.8781L500.963 45.8363C501.572 44.4135 502.879 43.4553 504.389 43.4553C506.363 43.4553 507.844 44.6168 507.844 46.7945C507.844 48.827 506.828 50.0175 502.589 50.0175V52.4565C505.202 52.4565 508.367 52.863 508.367 56.2893C508.367 58.4961 506.538 60.006 504.389 60.006C502.211 60.006 501.282 59.0478 500.614 57.0733L497.681 57.9734Z" fill="white"/>
<path d="M460.235 113.331C458.867 111.531 456.515 110.691 454.283 110.691C449.051 110.691 445.427 114.483 445.427 119.763C445.427 124.035 448.763 128.547 454.163 128.547C458.051 128.547 460.091 126.267 460.595 125.571L458.651 124.107C457.643 125.523 456.155 126.387 454.211 126.387C450.251 126.387 447.875 123.339 447.875 119.763C447.875 115.899 450.395 112.851 454.211 112.851C455.771 112.851 457.355 113.547 458.315 114.795L460.235 113.331ZM464.821 122.427C464.821 120.123 466.261 118.467 468.565 118.467C470.869 118.467 472.309 120.123 472.309 122.427C472.309 124.731 470.869 126.387 468.565 126.387C466.261 126.387 464.821 124.731 464.821 122.427ZM462.517 122.427C462.517 125.739 465.181 128.403 468.565 128.403C471.949 128.403 474.613 125.739 474.613 122.427C474.613 119.115 471.949 116.451 468.565 116.451C465.181 116.451 462.517 119.115 462.517 122.427ZM477.559 128.115H479.719V122.259C479.719 119.619 481.087 118.467 482.887 118.467C484.255 118.467 485.479 119.259 485.479 121.395V128.115H487.639V120.795C487.639 117.771 485.719 116.451 483.511 116.451C481.759 116.451 480.319 117.291 479.767 118.491H479.719V116.739H477.559V128.115ZM497.231 116.739H494.135V113.547H491.975V116.739H489.479V118.611H491.975V124.539C491.975 126.363 492.023 128.403 495.359 128.403C495.791 128.403 496.799 128.307 497.303 128.019V126.051C496.871 126.315 496.271 126.387 495.767 126.387C494.135 126.387 494.135 125.043 494.135 123.771V118.611H497.231V116.739ZM500.258 128.115H502.418V122.403C502.418 119.907 503.57 118.755 505.682 118.755C506.018 118.755 506.378 118.827 506.738 118.923L506.834 116.595C506.546 116.499 506.21 116.451 505.874 116.451C504.458 116.451 503.018 117.291 502.466 118.491H502.418V116.739H500.258V128.115ZM509.549 128.115H511.709V116.739H509.549V128.115ZM509.045 112.659C509.045 113.523 509.765 114.243 510.629 114.243C511.493 114.243 512.213 113.523 512.213 112.659C512.213 111.795 511.493 111.075 510.629 111.075C509.765 111.075 509.045 111.795 509.045 112.659ZM515.387 128.115H517.547V126.483H517.595C518.435 127.707 520.019 128.403 521.555 128.403C525.083 128.403 527.339 125.787 527.339 122.427C527.339 119.019 525.059 116.451 521.555 116.451C519.923 116.451 518.363 117.195 517.595 118.371H517.547V109.971H515.387V128.115ZM521.291 126.387C518.987 126.387 517.547 124.731 517.547 122.427C517.547 120.123 518.987 118.467 521.291 118.467C523.595 118.467 525.035 120.123 525.035 122.427C525.035 124.731 523.595 126.387 521.291 126.387ZM540.378 116.739H538.218V122.595C538.218 125.235 536.85 126.387 535.05 126.387C533.682 126.387 532.458 125.595 532.458 123.459V116.739H530.298V124.059C530.298 127.083 532.218 128.403 534.426 128.403C536.178 128.403 537.618 127.563 538.17 126.363H538.218V128.115H540.378V116.739ZM549.97 116.739H546.874V113.547H544.714V116.739H542.218V118.611H544.714V124.539C544.714 126.363 544.762 128.403 548.098 128.403C548.53 128.403 549.538 128.307 550.042 128.019V126.051C549.61 126.315 549.01 126.387 548.506 126.387C546.874 126.387 546.874 125.043 546.874 123.771V118.611H549.97V116.739ZM563.749 123.219V122.451C563.749 119.523 562.213 116.451 558.205 116.451C554.797 116.451 552.325 119.019 552.325 122.427C552.325 125.811 554.581 128.403 558.181 128.403C560.365 128.403 562.021 127.635 563.221 126.075L561.589 124.827C560.749 125.859 559.789 126.531 558.469 126.531C556.477 126.531 554.629 125.211 554.629 123.219H563.749ZM554.629 121.491C554.629 119.979 556.021 118.179 558.157 118.179C560.341 118.179 561.397 119.595 561.445 121.491H554.629Z" fill="white"/>
</g>
<defs>
<clipPath id="clip0">
<rect x="20.4616" y="20.8846" width="145" height="127.231" fill="white"/>
</clipPath>
<clipPath id="clip1">
<rect x="226.231" y="20.8846" width="145" height="127.231" fill="white"/>
</clipPath>
<clipPath id="clip2">
<rect x="432" y="20.8846" width="145" height="127.231" fill="white"/>
</clipPath>
</defs>
</svg>
