<svg width="109" height="686" viewBox="0 0 109 686" fill="none" xmlns="http://www.w3.org/2000/svg">
<path opacity="0.5" d="M54.4999 0L109 34.5L54.4999 69L-6.10352e-05 34.5L54.4999 0Z" fill="white"/>
<path d="M54.5 0L109 34.5L54.5 69L0 34.5L54.5 0Z" fill="#C42F55"/>
<path opacity="0.5" d="M-6.10352e-05 651.5L54.4999 686L54.4998 69L-6.10352e-05 34.5V651.5Z" fill="white"/>
<path opacity="0.6" d="M109 651.5L54.4999 686L54.5 69L109 34.5V651.5Z" fill="white"/>
<path opacity="0.6" d="M6.04752e-05 653.5L54 686V67.5L6.04752e-05 34.0001V653.5Z" fill="#C42F55"/>
<path opacity="0.7" d="M109 650.5L55 686V66.5L109 34V650.5Z" fill="#C42F55"/>
</svg>
